# xmcd
#
# Track frame offsets: 
#        150
#        21425
#        49700
#        68025
#        86550
#        106400
#        130100
#        162750
#        194075
#
# Disc length: 2849 seconds
#
# Revision: 3
# Processed by: cddbd v1.5PL3 Copyright (c) Steve Scherf et al.
# Submitted via: ExactAudioCopy v0.95a5
#
DISCID=770b1f09
DTITLE=Gallagher, Rory - Tattoo
DYEAR=1973
DGENRE=Rock
TTITLE0=Tattoo'd Lady
TTITLE1=Cradle Rock
TTITLE2=20:20 Vision
TTITLE3=They Don't Make Them Like You Anymore
TTITLE4=Livin' Like A Trucker
TTITLE5=Sleep On A Clothes-Line
TTITLE6=Who's That Coming
TTITLE7=A Million Miles Away
TTITLE8=Admit It
EXTD=
EXTT0=
EXTT1=
EXTT2=
EXTT3=
EXTT4=
EXTT5=
EXTT6=
EXTT7=
EXTT8=
PLAYORDER=
